<svg width="47" height="76" viewBox="0 0 47 76" fill="none" xmlns="http://www.w3.org/2000/svg">
<path fill-rule="evenodd" clip-rule="evenodd" d="M33.4832 0H12.0135C9.72048 0 7.85132 1.90081 7.85132 4.23673V45.7471V51.7406C7.85132 53.0904 8.92376 54.1843 10.2516 54.1843C11.5794 54.1848 12.657 53.0904 12.657 51.7401V45.6914V6.42047C12.657 5.57425 13.3413 4.88838 14.1891 4.88838C17.9427 4.88838 27.5591 4.88838 31.3127 4.88787C31.7161 4.88787 32.1094 5.04976 32.3954 5.33677C32.6814 5.62429 32.8448 6.01395 32.8448 6.41996C32.8448 9.92282 32.8448 18.5444 32.8448 22.8649C32.8448 23.5421 32.5741 24.1912 32.0941 24.6702C31.6191 25.1492 30.9705 25.4184 30.2913 25.4184H21.5329C19.2348 25.4184 17.3656 27.3187 17.3656 29.6546V42.0573C17.3656 43.4071 18.4432 44.501 19.771 44.501C21.0988 44.5015 22.1764 43.4071 22.1713 42.0573V31.8388C22.1713 30.9926 22.8607 30.3067 23.7034 30.3067C26.7982 30.3067 33.4832 30.3062 33.4832 30.3062C34.6322 30.3062 35.6741 29.8313 36.4299 29.0642C37.1857 28.2971 37.6505 27.238 37.6505 26.07V4.23673C37.6505 1.9003 35.7813 0 33.4832 0ZM19.8067 21.2163C20.4196 21.2163 21.0222 20.9671 21.4563 20.5335C21.8904 20.1 22.1355 19.5004 22.1355 18.8881C22.1355 18.2752 21.8904 17.6742 21.4563 17.2401C21.0222 16.807 20.4196 16.5598 19.8067 16.5598C19.1939 16.5583 18.5963 16.807 18.1623 17.2401C17.7282 17.6742 17.4779 18.2747 17.4831 18.8881C17.4831 19.5004 17.7282 20.1 18.1623 20.5335C18.5963 20.9671 19.1939 21.2163 19.8067 21.2163ZM28.4937 13.8868C28.9278 13.4533 29.1729 12.8542 29.1729 12.2409C29.1729 11.628 28.9278 11.028 28.4937 10.5944C28.0596 10.1623 27.4569 9.91312 26.8441 9.91312C26.2313 9.91312 25.6338 10.1608 25.1997 10.5944C24.7656 11.028 24.5154 11.6275 24.5154 12.2419C24.5154 12.8542 24.7656 13.4533 25.1997 13.8868C25.6338 14.3204 26.2313 14.5696 26.8441 14.5696C27.4569 14.5696 28.0596 14.3204 28.4937 13.8868ZM19.7863 14.5696C20.3991 14.5696 20.9966 14.3204 21.4307 13.8868C21.8648 13.4538 22.1151 12.8542 22.1151 12.2419C22.1151 11.6285 21.8648 11.028 21.4307 10.5944C20.9966 10.1608 20.3991 9.91312 19.7863 9.91312C19.1735 9.91312 18.5709 10.1608 18.1368 10.5949C17.7078 11.0285 17.4576 11.6285 17.4576 12.2409C17.4576 12.8542 17.7078 13.4538 18.1368 13.8868C18.5709 14.3204 19.1735 14.5696 19.7863 14.5696Z" fill="#440F83"/>
<path d="M5.39309 68.3479C5.39309 67.6117 5.22772 67.025 4.89699 66.5875C4.56625 66.1394 4.07549 65.9154 3.42469 65.9154C3.21131 65.9154 3.01394 65.9261 2.83257 65.9474C2.6512 65.9581 2.50184 65.9741 2.38448 65.9954V70.3003C2.53384 70.3963 2.72588 70.4763 2.9606 70.5403C3.20598 70.6043 3.45136 70.6363 3.69674 70.6363C4.82764 70.6363 5.39309 69.8735 5.39309 68.3479ZM7.82558 68.2839C7.82558 68.9347 7.74556 69.5268 7.58553 70.0602C7.4255 70.5937 7.19078 71.0524 6.88139 71.4365C6.57199 71.8206 6.18791 72.1193 5.72915 72.3327C5.27039 72.5461 4.74229 72.6527 4.14483 72.6527C3.8141 72.6527 3.50471 72.6207 3.21665 72.5567C2.92859 72.4927 2.6512 72.402 2.38448 72.2847V75.4533H0V64.3631C0.213376 64.2991 0.458759 64.2404 0.736148 64.187C1.01354 64.123 1.3016 64.0697 1.60032 64.027C1.90972 63.9843 2.21911 63.9523 2.52851 63.931C2.84857 63.899 3.15263 63.883 3.44069 63.883C4.13417 63.883 4.75296 63.9897 5.29707 64.203C5.84118 64.4058 6.29993 64.6991 6.67334 65.0832C7.04675 65.4566 7.32948 65.9154 7.52151 66.4595C7.72422 67.0036 7.82558 67.6117 7.82558 68.2839Z" fill="#440F83"/>
<path d="M17.5318 68.2679C17.5318 68.9293 17.4358 69.5375 17.2437 70.0922C17.0517 70.6363 16.7743 71.1058 16.4116 71.5005C16.0488 71.8846 15.6114 72.1833 15.0993 72.3967C14.5979 72.6101 14.0324 72.7168 13.4029 72.7168C12.7842 72.7168 12.2187 72.6101 11.7066 72.3967C11.2052 72.1833 10.7731 71.8846 10.4103 71.5005C10.0476 71.1058 9.76488 70.6363 9.56217 70.0922C9.35947 69.5375 9.25811 68.9293 9.25811 68.2679C9.25811 67.6064 9.35947 67.0036 9.56217 66.4595C9.77555 65.9154 10.0636 65.4513 10.4263 65.0672C10.7998 64.6831 11.2372 64.3844 11.7386 64.171C12.2507 63.9577 12.8055 63.851 13.4029 63.851C14.0111 63.851 14.5658 63.9577 15.0673 64.171C15.5794 64.3844 16.0168 64.6831 16.3795 65.0672C16.7423 65.4513 17.025 65.9154 17.2277 66.4595C17.4304 67.0036 17.5318 67.6064 17.5318 68.2679ZM15.0993 68.2679C15.0993 67.5317 14.9499 66.9556 14.6512 66.5395C14.3631 66.1128 13.9471 65.8994 13.4029 65.8994C12.8588 65.8994 12.4374 66.1128 12.1387 66.5395C11.84 66.9556 11.6906 67.5317 11.6906 68.2679C11.6906 69.004 11.84 69.5908 12.1387 70.0282C12.4374 70.455 12.8588 70.6683 13.4029 70.6683C13.9471 70.6683 14.3631 70.455 14.6512 70.0282C14.9499 69.5908 15.0993 69.004 15.0993 68.2679Z" fill="#440F83"/>
<path d="M22.7396 72.6527C22.0461 72.6421 21.4807 72.5674 21.0432 72.4287C20.6165 72.29 20.2751 72.098 20.019 71.8526C19.7736 71.5965 19.6029 71.2925 19.5069 70.9404C19.4216 70.5777 19.3789 70.1722 19.3789 69.7242V60.4583L21.7634 60.0742V69.2441C21.7634 69.4574 21.7794 69.6495 21.8114 69.8202C21.8434 69.9909 21.9021 70.1349 21.9874 70.2523C22.0834 70.3696 22.2168 70.4656 22.3875 70.5403C22.5582 70.615 22.7876 70.663 23.0756 70.6844L22.7396 72.6527Z" fill="#440F83"/>
<path d="M27.8031 72.6527C27.1096 72.6421 26.5442 72.5674 26.1068 72.4287C25.68 72.29 25.3386 72.098 25.0825 71.8526C24.8372 71.5965 24.6665 71.2925 24.5704 70.9404C24.4851 70.5777 24.4424 70.1722 24.4424 69.7242V60.4583L26.8269 60.0742V69.2441C26.8269 69.4574 26.8429 69.6495 26.8749 69.8202C26.9069 69.9909 26.9656 70.1349 27.0509 70.2523C27.147 70.3696 27.2803 70.4656 27.451 70.5403C27.6217 70.615 27.8511 70.663 28.1392 70.6844L27.8031 72.6527Z" fill="#440F83"/>
<path d="M29.1059 68.3479C29.1059 67.6011 29.2179 66.9503 29.4419 66.3955C29.6766 65.83 29.9807 65.3606 30.3541 64.9872C30.7275 64.6138 31.1543 64.3311 31.6344 64.139C32.1251 63.947 32.6266 63.851 33.1387 63.851C34.3336 63.851 35.2778 64.2191 35.9712 64.9552C36.6647 65.6807 37.0115 66.7529 37.0115 68.1718C37.0115 68.3105 37.0061 68.4652 36.9954 68.6359C36.9848 68.796 36.9741 68.94 36.9634 69.068H31.5544C31.6077 69.5588 31.8371 69.9482 32.2425 70.2363C32.6479 70.5243 33.192 70.6683 33.8748 70.6683C34.3122 70.6683 34.739 70.631 35.1551 70.5563C35.5818 70.471 35.9286 70.3696 36.1953 70.2523L36.5154 72.1887C36.3873 72.2527 36.2166 72.3167 36.0032 72.3807C35.7899 72.4447 35.5498 72.4981 35.2831 72.5407C35.0271 72.5941 34.7497 72.6367 34.4509 72.6688C34.1522 72.7008 33.8535 72.7168 33.5548 72.7168C32.7973 72.7168 32.1358 72.6047 31.5704 72.3807C31.0156 72.1566 30.5515 71.8526 30.1781 71.4685C29.8153 71.0738 29.5433 70.6097 29.3619 70.0762C29.1912 69.5428 29.1059 68.9667 29.1059 68.3479ZM34.707 67.4357C34.6963 67.233 34.659 67.0356 34.595 66.8436C34.5416 66.6515 34.4509 66.4808 34.3229 66.3315C34.2056 66.1821 34.0509 66.0594 33.8588 65.9634C33.6774 65.8674 33.4481 65.8194 33.1707 65.8194C32.904 65.8194 32.6746 65.8674 32.4825 65.9634C32.2905 66.0488 32.1305 66.1661 32.0024 66.3155C31.8744 66.4648 31.7731 66.6409 31.6984 66.8436C31.6344 67.0356 31.5864 67.233 31.5544 67.4357H34.707Z" fill="#440F83"/>
<path d="M38.8516 64.3631C39.257 64.2457 39.7798 64.139 40.4199 64.043C41.06 63.9363 41.7322 63.883 42.4363 63.883C43.1511 63.883 43.7432 63.979 44.2127 64.171C44.6927 64.3524 45.0715 64.6138 45.3489 64.9552C45.6263 65.2966 45.8236 65.702 45.941 66.1714C46.0584 66.6409 46.117 67.1636 46.117 67.7398V72.4927H43.7326V68.0278C43.7326 67.2597 43.6312 66.7156 43.4285 66.3955C43.2258 66.0754 42.847 65.9154 42.2923 65.9154C42.1216 65.9154 41.9402 65.9261 41.7482 65.9474C41.5561 65.9581 41.3854 65.9741 41.236 65.9954V72.4927H38.8516V64.3631Z" fill="#440F83"/>
</svg>