<svg width="47" height="83" viewBox="0 0 47 83" fill="none" xmlns="http://www.w3.org/2000/svg">
<path d="M13.9852 79.2778C13.9683 79.0902 13.8927 78.944 13.7588 78.8393C13.6249 78.7347 13.4346 78.6823 13.1879 78.6823C13.0246 78.6823 12.8887 78.7037 12.7801 78.7466C12.6716 78.7894 12.5901 78.8477 12.5354 78.9214C12.4809 78.9952 12.4529 79.0794 12.4516 79.1738C12.4489 79.252 12.4648 79.3211 12.4993 79.3811C12.5337 79.4411 12.5847 79.4936 12.652 79.5387C12.7192 79.5837 12.8005 79.6233 12.8957 79.6575C12.9908 79.6916 13.0977 79.7214 13.2163 79.7469L13.6651 79.8489C13.9233 79.905 14.1515 79.9794 14.3496 80.0722C14.5475 80.165 14.7142 80.2763 14.8498 80.4059C14.9851 80.5356 15.0877 80.6846 15.1574 80.8528C15.2272 81.0211 15.2627 81.2093 15.2639 81.4173C15.2627 81.7484 15.1793 82.0319 15.0138 82.2677C14.8485 82.5036 14.6117 82.6847 14.3032 82.8108C13.9947 82.9369 13.6237 82.9999 13.1899 82.9999C12.7521 82.9999 12.3709 82.9341 12.0466 82.8026C11.722 82.6711 11.4698 82.4718 11.2899 82.205C11.1097 81.9382 11.0171 81.6015 11.0117 81.195H12.2191C12.2292 81.3622 12.2746 81.5022 12.3548 81.6149C12.4353 81.7276 12.5455 81.8125 12.6854 81.8698C12.8251 81.9271 12.9879 81.9557 13.1736 81.9557C13.3428 81.9557 13.4875 81.9328 13.6074 81.8871C13.7275 81.8414 13.8197 81.7778 13.8843 81.6964C13.9489 81.615 13.9819 81.5213 13.9833 81.4152C13.9819 81.3166 13.9513 81.2323 13.8919 81.1624C13.8325 81.0923 13.7413 81.0311 13.6187 80.9788C13.4959 80.9264 13.3387 80.8782 13.147 80.834L12.6024 80.7076C12.1512 80.6039 11.7952 80.4361 11.5348 80.2043C11.2744 79.9725 11.1448 79.6582 11.1463 79.2615C11.1448 78.9379 11.2319 78.6547 11.4071 78.4118C11.5823 78.1689 11.8243 77.9796 12.1332 77.8438C12.4419 77.7081 12.7948 77.6401 13.192 77.6401C13.5964 77.6401 13.9478 77.7086 14.2462 77.8454C14.5448 77.9821 14.7763 78.1736 14.941 78.4197C15.1056 78.6658 15.1896 78.9518 15.1927 79.2778H13.9852Z" fill="#440F83"/>
<path d="M19.0241 82.9328H17.668L19.43 77.7117H21.1105L22.8727 82.9328H21.5163L20.2906 79.0271H20.2498L19.0241 82.9328ZM18.8448 80.8769H21.6796V81.8375H18.8448V80.8769Z" fill="#440F83"/>
<path d="M25.601 77.7117L26.7675 81.5357H26.8124L27.9789 77.7117H29.3924L27.6302 82.9328H25.9497L24.1875 77.7117H25.601Z" fill="#440F83"/>
<path d="M31.4219 82.9328V77.7117H35.0625V78.7375H32.6822V79.8083H34.8747V80.8341H32.6822V81.9069H35.0625V82.9328H31.4219Z" fill="#440F83"/>
<path fill-rule="evenodd" clip-rule="evenodd" d="M33.6078 0H12.0503C9.7479 0 7.87109 1.9086 7.87109 4.25408V45.9344V51.9525C7.87109 53.3078 8.94792 54.4062 10.2812 54.4062C11.6144 54.4067 12.6964 53.3078 12.6964 51.952V45.8785V6.44676C12.6964 5.59707 13.3836 4.9084 14.2348 4.9084C18.0038 4.9084 27.6595 4.9084 31.4285 4.90788C31.8336 4.90788 32.2285 5.07044 32.5156 5.35862C32.8028 5.64732 32.9668 6.03858 32.9668 6.44624C32.9668 9.96345 32.9668 18.6203 32.9668 22.9585C32.9668 23.6385 32.6951 24.2902 32.213 24.7712C31.7361 25.2522 31.0849 25.5224 30.4029 25.5224H21.6087C19.3011 25.5224 17.4243 27.4305 17.4243 29.776V42.2295C17.4243 43.5848 18.5063 44.6832 19.8395 44.6832C21.1728 44.6837 22.2548 43.5848 22.2496 42.2295V31.9692C22.2496 31.1195 22.9419 30.4308 23.788 30.4308C26.8955 30.4308 33.6078 30.4303 33.6078 30.4303C34.7616 30.4303 35.8077 29.9534 36.5666 29.1832C37.3255 28.413 37.7922 27.3495 37.7922 26.1768V4.25408C37.7922 1.90808 35.9153 0 33.6078 0ZM19.8754 21.3032C20.4908 21.3032 21.0959 21.053 21.5317 20.6176C21.9676 20.1823 22.2137 19.5803 22.2137 18.9654C22.2137 18.3501 21.9676 17.7465 21.5317 17.3107C21.0959 16.8758 20.4908 16.6276 19.8754 16.6276C19.2601 16.6261 18.6601 16.8758 18.2242 17.3107C17.7883 17.7465 17.5371 18.3496 17.5422 18.9654C17.5422 19.5803 17.7883 20.1823 18.2242 20.6176C18.6601 21.053 19.2601 21.3032 19.8754 21.3032ZM28.5979 13.9437C29.0338 13.5083 29.2799 12.9069 29.2799 12.291C29.2799 11.6757 29.0338 11.0731 28.5979 10.6378C28.1621 10.204 27.5569 9.95371 26.9416 9.95371C26.3262 9.95371 25.7263 10.2024 25.2904 10.6378C24.8546 11.0731 24.6033 11.6751 24.6033 12.292C24.6033 12.9069 24.8546 13.5083 25.2904 13.9437C25.7263 14.3791 26.3262 14.6293 26.9416 14.6293C27.5569 14.6293 28.1621 14.3791 28.5979 13.9437ZM19.8549 14.6293C20.4702 14.6293 21.0702 14.3791 21.5061 13.9437C21.9419 13.5089 22.1932 12.9069 22.1932 12.292C22.1932 11.6762 21.9419 11.0731 21.5061 10.6378C21.0702 10.2024 20.4702 9.95371 19.8549 9.95371C19.2396 9.95371 18.6345 10.2024 18.1986 10.6383C17.7679 11.0736 17.5166 11.6762 17.5166 12.291C17.5166 12.9069 17.7679 13.5089 18.1986 13.9437C18.6345 14.3791 19.2396 14.6293 19.8549 14.6293Z" fill="#440F83"/>
<path d="M5.43404 68.8688C5.43404 68.1271 5.26742 67.5359 4.93417 67.0951C4.60093 66.6436 4.10643 66.4179 3.45069 66.4179C3.2357 66.4179 3.03683 66.4286 2.85408 66.4501C2.67133 66.4609 2.52083 66.477 2.40259 66.4985V70.8361C2.55308 70.9328 2.74658 71.0134 2.98308 71.0779C3.23032 71.1424 3.47757 71.1747 3.72482 71.1747C4.8643 71.1747 5.43404 70.4061 5.43404 68.8688ZM7.885 68.8043C7.885 69.4601 7.80437 70.0567 7.64313 70.5942C7.48188 71.1317 7.24538 71.5939 6.93364 71.9809C6.62189 72.3679 6.2349 72.6689 5.77266 72.8839C5.31041 73.0989 4.7783 73.2064 4.17631 73.2064C3.84306 73.2064 3.53132 73.1741 3.24107 73.1096C2.95083 73.0451 2.67133 72.9538 2.40259 72.8355V76.0282H0V64.8538C0.214997 64.7893 0.462243 64.7302 0.741738 64.6764C1.02123 64.6119 1.31148 64.5582 1.61247 64.5152C1.92422 64.4722 2.23596 64.4399 2.54771 64.4184C2.8702 64.3862 3.17657 64.37 3.46682 64.37C4.16556 64.37 4.78905 64.4775 5.33729 64.6925C5.88553 64.8968 6.34777 65.1924 6.72402 65.5794C7.10026 65.9556 7.38513 66.4179 7.57863 66.9661C7.78288 67.5144 7.885 68.1271 7.885 68.8043Z" fill="#440F83"/>
<path d="M17.6649 68.7882C17.6649 69.4547 17.5682 70.0674 17.3747 70.6264C17.1812 71.1747 16.9017 71.6477 16.5362 72.0454C16.1707 72.4324 15.7299 72.7334 15.2139 72.9484C14.7087 73.1634 14.139 73.2709 13.5047 73.2709C12.8812 73.2709 12.3115 73.1634 11.7955 72.9484C11.2903 72.7334 10.8549 72.4324 10.4894 72.0454C10.1239 71.6477 9.83903 71.1747 9.63478 70.6264C9.43054 70.0674 9.32841 69.4547 9.32841 68.7882C9.32841 68.1217 9.43054 67.5144 9.63478 66.9661C9.84978 66.4179 10.14 65.9503 10.5055 65.5633C10.8818 65.1763 11.3225 64.8753 11.8277 64.6603C12.3437 64.4453 12.9027 64.3378 13.5047 64.3378C14.1175 64.3378 14.6765 64.4453 15.1817 64.6603C15.6977 64.8753 16.1384 65.1763 16.5039 65.5633C16.8694 65.9503 17.1543 66.4179 17.3585 66.9661C17.5628 67.5144 17.6649 68.1217 17.6649 68.7882ZM15.2139 68.7882C15.2139 68.0465 15.0634 67.466 14.7625 67.0467C14.4722 66.6168 14.053 66.4018 13.5047 66.4018C12.9565 66.4018 12.5319 66.6168 12.2309 67.0467C11.9299 67.466 11.7794 68.0465 11.7794 68.7882C11.7794 69.53 11.9299 70.1212 12.2309 70.5619C12.5319 70.9919 12.9565 71.2069 13.5047 71.2069C14.053 71.2069 14.4722 70.9919 14.7625 70.5619C15.0634 70.1212 15.2139 69.53 15.2139 68.7882Z" fill="#440F83"/>
<path d="M22.9122 73.2064C22.2135 73.1956 21.6438 73.1204 21.203 72.9806C20.773 72.8409 20.429 72.6474 20.171 72.4002C19.9238 72.1422 19.7518 71.8358 19.6551 71.481C19.5691 71.1156 19.5261 70.7071 19.5261 70.2556V60.9193L21.9286 60.5323V69.7718C21.9286 69.9868 21.9448 70.1803 21.977 70.3523C22.0093 70.5243 22.0684 70.6694 22.1544 70.7877C22.2511 70.9059 22.3855 71.0027 22.5575 71.0779C22.7295 71.1532 22.9606 71.2016 23.2509 71.2231L22.9122 73.2064Z" fill="#440F83"/>
<path d="M28.0142 73.2064C27.3155 73.1956 26.7457 73.1204 26.305 72.9806C25.875 72.8409 25.531 72.6474 25.273 72.4002C25.0258 72.1422 24.8538 71.8358 24.757 71.481C24.671 71.1156 24.628 70.7071 24.628 70.2556V60.9193L27.0306 60.5323V69.7718C27.0306 69.9868 27.0467 70.1803 27.079 70.3523C27.1112 70.5243 27.1704 70.6694 27.2564 70.7877C27.3531 70.9059 27.4875 71.0027 27.6595 71.0779C27.8315 71.1532 28.0626 71.2016 28.3528 71.2231L28.0142 73.2064Z" fill="#440F83"/>
<path d="M29.3269 68.8688C29.3269 68.1164 29.4397 67.4606 29.6655 66.9016C29.902 66.3319 30.2084 65.8589 30.5846 65.4826C30.9608 65.1064 31.3908 64.8215 31.8746 64.628C32.3691 64.4345 32.8743 64.3378 33.3903 64.3378C34.5943 64.3378 35.5456 64.7087 36.2444 65.4504C36.9431 66.1814 37.2925 67.2617 37.2925 68.6915C37.2925 68.8312 37.2871 68.9871 37.2764 69.1591C37.2656 69.3203 37.2549 69.4655 37.2441 69.5945H31.794C31.8477 70.0889 32.0788 70.4813 32.4873 70.7716C32.8958 71.0618 33.4441 71.2069 34.132 71.2069C34.5728 71.2069 35.0028 71.1693 35.422 71.0941C35.852 71.0081 36.2014 70.9059 36.4701 70.7877L36.7926 72.7388C36.6636 72.8033 36.4916 72.8678 36.2766 72.9323C36.0616 72.9968 35.8198 73.0505 35.551 73.0935C35.293 73.1473 35.0135 73.1903 34.7125 73.2225C34.4115 73.2548 34.1105 73.2709 33.8096 73.2709C33.0463 73.2709 32.3798 73.158 31.8101 72.9323C31.2511 72.7065 30.7835 72.4002 30.4072 72.0132C30.0417 71.6154 29.7676 71.1478 29.5849 70.6103C29.4129 70.0728 29.3269 69.4923 29.3269 68.8688ZM34.9705 67.9497C34.9598 67.7455 34.9222 67.5466 34.8577 67.3531C34.8039 67.1596 34.7125 66.9876 34.5835 66.8371C34.4653 66.6866 34.3094 66.563 34.1159 66.4663C33.9332 66.3695 33.7021 66.3211 33.4226 66.3211C33.1538 66.3211 32.9227 66.3695 32.7292 66.4663C32.5357 66.5523 32.3744 66.6705 32.2454 66.821C32.1165 66.9715 32.0143 67.1489 31.9391 67.3531C31.8746 67.5466 31.8262 67.7455 31.794 67.9497H34.9705Z" fill="#440F83"/>
<path d="M39.1466 64.8538C39.5551 64.7355 40.0818 64.628 40.7268 64.5313C41.3718 64.4238 42.049 64.37 42.7585 64.37C43.4788 64.37 44.0754 64.4668 44.5484 64.6603C45.0321 64.843 45.4137 65.1064 45.6932 65.4504C45.9727 65.7944 46.1716 66.2029 46.2898 66.6759C46.4081 67.1489 46.4672 67.6756 46.4672 68.2561V73.0451H44.0646V68.5463C44.0646 67.7724 43.9625 67.2241 43.7583 66.9016C43.554 66.5791 43.1724 66.4179 42.6134 66.4179C42.4414 66.4179 42.2587 66.4286 42.0652 66.4501C41.8717 66.4609 41.6997 66.477 41.5492 66.4985V73.0451H39.1466V64.8538Z" fill="#440F83"/>
</svg>
