<svg width="40" height="40" viewBox="0 0 40 40" fill="none" xmlns="http://www.w3.org/2000/svg">
<path fill-rule="evenodd" clip-rule="evenodd" d="M24.8443 0.192871H14.5137C13.4104 0.192871 12.511 1.10749 12.511 2.23148V22.2052V25.0892C12.511 25.7386 13.027 26.265 13.6659 26.265C14.3048 26.2652 14.8233 25.7386 14.8233 25.0889V22.1784V3.28224C14.8233 2.87506 15.1526 2.54504 15.5605 2.54504C17.3667 2.54504 21.9938 2.54504 23.8 2.54479C23.9941 2.54479 24.1833 2.62269 24.321 2.76079C24.4586 2.89914 24.5372 3.08663 24.5372 3.28199C24.5372 4.96748 24.5372 9.11596 24.5372 11.1949C24.5372 11.5207 24.4069 11.833 24.176 12.0635C23.9474 12.294 23.6353 12.4235 23.3085 12.4235H19.0942C17.9884 12.4235 17.089 13.3379 17.089 14.4619V20.4298C17.089 21.0793 17.6075 21.6056 18.2464 21.6056C18.8853 21.6059 19.4038 21.0793 19.4014 20.4298V15.5129C19.4014 15.1057 19.7331 14.7757 20.1386 14.7757C21.6277 14.7757 24.8443 14.7755 24.8443 14.7755C25.3972 14.7755 25.8985 14.5469 26.2622 14.1778C26.6259 13.8087 26.8495 13.2991 26.8495 12.7371V2.23148C26.8495 1.10725 25.9501 0.192871 24.8443 0.192871ZM18.2636 10.4016C18.5585 10.4016 18.8485 10.2817 19.0573 10.0731C19.2662 9.86447 19.3841 9.57598 19.3841 9.28134C19.3841 8.98646 19.2662 8.69723 19.0573 8.48836C18.8485 8.27998 18.5585 8.16104 18.2636 8.16104C17.9687 8.16031 17.6812 8.27998 17.4723 8.48836C17.2635 8.69723 17.1431 8.98621 17.1455 9.28134C17.1455 9.57598 17.2635 9.86447 17.4723 10.0731C17.6812 10.2817 17.9687 10.4016 18.2636 10.4016ZM22.4435 6.87487C22.6524 6.66624 22.7704 6.378 22.7704 6.08287C22.7704 5.78799 22.6524 5.49925 22.4435 5.29062C22.2347 5.08273 21.9447 4.96282 21.6498 4.96282C21.3549 4.96282 21.0674 5.082 20.8585 5.29062C20.6497 5.49925 20.5293 5.78774 20.5293 6.08336C20.5293 6.378 20.6497 6.66624 20.8585 6.87487C21.0674 7.0835 21.3549 7.20342 21.6498 7.20342C21.9447 7.20342 22.2347 7.0835 22.4435 6.87487ZM18.2538 7.20342C18.5487 7.20342 18.8362 7.0835 19.045 6.87487C19.2539 6.66649 19.3743 6.378 19.3743 6.08336C19.3743 5.78823 19.2539 5.49925 19.045 5.29062C18.8362 5.082 18.5487 4.96282 18.2538 4.96282C17.9589 4.96282 17.6689 5.08199 17.4601 5.29087C17.2536 5.4995 17.1332 5.78824 17.1332 6.08287C17.1332 6.378 17.2536 6.66649 17.4601 6.87487C17.6689 7.0835 17.9589 7.20342 18.2538 7.20342Z" fill="#440F83"/>
<path d="M11.3541 33.1981C11.3541 32.8426 11.2742 32.5593 11.1145 32.3481C10.9548 32.1317 10.7179 32.0235 10.4036 32.0235C10.3006 32.0235 10.2053 32.0287 10.1177 32.039C10.0301 32.0442 9.95802 32.0519 9.90135 32.0622V34.1408C9.97347 34.1872 10.0662 34.2258 10.1795 34.2567C10.298 34.2876 10.4165 34.3031 10.535 34.3031C11.081 34.3031 11.3541 33.9347 11.3541 33.1981ZM12.5286 33.1672C12.5286 33.4814 12.49 33.7673 12.4127 34.0249C12.3354 34.2825 12.2221 34.504 12.0727 34.6894C11.9233 34.8749 11.7378 35.0191 11.5163 35.1221C11.2948 35.2252 11.0398 35.2767 10.7513 35.2767C10.5916 35.2767 10.4423 35.2612 10.3032 35.2303C10.1641 35.1994 10.0301 35.1556 9.90135 35.099V36.6289H8.75V31.274C8.85303 31.2431 8.97151 31.2148 9.10545 31.189C9.23939 31.1581 9.37848 31.1323 9.52272 31.1117C9.67211 31.0911 9.8215 31.0757 9.97089 31.0654C10.1254 31.0499 10.2723 31.0422 10.4113 31.0422C10.7462 31.0422 11.045 31.0937 11.3077 31.1967C11.5704 31.2946 11.7919 31.4363 11.9722 31.6217C12.1525 31.802 12.289 32.0235 12.3818 32.2863C12.4797 32.549 12.5286 32.8426 12.5286 33.1672Z" fill="#440F83"/>
<path d="M17.2152 33.1594C17.2152 33.4788 17.1689 33.7725 17.0762 34.0403C16.9834 34.3031 16.8495 34.5297 16.6743 34.7203C16.4992 34.9058 16.288 35.05 16.0407 35.1531C15.7986 35.2561 15.5256 35.3076 15.2216 35.3076C14.9228 35.3076 14.6498 35.2561 14.4026 35.1531C14.1604 35.05 13.9518 34.9058 13.7766 34.7203C13.6015 34.5297 13.465 34.3031 13.3671 34.0403C13.2692 33.7725 13.2203 33.4788 13.2203 33.1594C13.2203 32.84 13.2692 32.549 13.3671 32.2863C13.4701 32.0235 13.6092 31.7995 13.7844 31.614C13.9647 31.4286 14.1759 31.2843 14.418 31.1813C14.6653 31.0783 14.9332 31.0267 15.2216 31.0267C15.5153 31.0267 15.7831 31.0783 16.0253 31.1813C16.2725 31.2843 16.4837 31.4286 16.6589 31.614C16.834 31.7995 16.9705 32.0235 17.0684 32.2863C17.1663 32.549 17.2152 32.84 17.2152 33.1594ZM16.0407 33.1594C16.0407 32.804 15.9686 32.5258 15.8244 32.3249C15.6853 32.1188 15.4844 32.0158 15.2216 32.0158C14.9589 32.0158 14.7554 32.1188 14.6112 32.3249C14.4669 32.5258 14.3948 32.804 14.3948 33.1594C14.3948 33.5149 14.4669 33.7982 14.6112 34.0094C14.7554 34.2155 14.9589 34.3185 15.2216 34.3185C15.4844 34.3185 15.6853 34.2155 15.8244 34.0094C15.9686 33.7982 16.0407 33.5149 16.0407 33.1594Z" fill="#440F83"/>
<path d="M19.7298 35.2767C19.395 35.2715 19.122 35.2355 18.9108 35.1685C18.7047 35.1015 18.5399 35.0088 18.4162 34.8903C18.2977 34.7667 18.2153 34.6199 18.1689 34.4499C18.1277 34.2747 18.1071 34.079 18.1071 33.8626V29.3886L19.2585 29.2031V33.6308C19.2585 33.7338 19.2662 33.8266 19.2817 33.909C19.2971 33.9914 19.3254 34.0609 19.3667 34.1176C19.413 34.1743 19.4774 34.2206 19.5598 34.2567C19.6423 34.2928 19.753 34.3159 19.8921 34.3262L19.7298 35.2767Z" fill="#440F83"/>
<path d="M22.1748 35.2767C21.8399 35.2715 21.5669 35.2355 21.3557 35.1685C21.1496 35.1015 20.9848 35.0088 20.8611 34.8903C20.7427 34.7667 20.6602 34.6199 20.6139 34.4499C20.5727 34.2747 20.5521 34.079 20.5521 33.8626V29.3886L21.7034 29.2031V33.6308C21.7034 33.7338 21.7111 33.8266 21.7266 33.909C21.742 33.9914 21.7704 34.0609 21.8116 34.1176C21.8579 34.1743 21.9223 34.2206 22.0048 34.2567C22.0872 34.2928 22.1979 34.3159 22.337 34.3262L22.1748 35.2767Z" fill="#440F83"/>
<path d="M22.8038 33.1981C22.8038 32.8375 22.8579 32.5232 22.9661 32.2554C23.0794 31.9823 23.2262 31.7557 23.4065 31.5754C23.5868 31.3951 23.7929 31.2586 24.0247 31.1658C24.2617 31.0731 24.5038 31.0267 24.7511 31.0267C25.328 31.0267 25.7839 31.2045 26.1188 31.5599C26.4536 31.9102 26.621 32.4279 26.621 33.1131C26.621 33.18 26.6185 33.2547 26.6133 33.3372C26.6082 33.4144 26.603 33.484 26.5978 33.5458H23.9861C24.0118 33.7828 24.1226 33.9708 24.3183 34.1099C24.5141 34.249 24.7768 34.3185 25.1065 34.3185C25.3177 34.3185 25.5238 34.3005 25.7247 34.2644C25.9307 34.2232 26.0982 34.1743 26.2269 34.1176L26.3815 35.0526C26.3197 35.0835 26.2372 35.1144 26.1342 35.1453C26.0312 35.1762 25.9153 35.202 25.7865 35.2226C25.6629 35.2484 25.5289 35.269 25.3847 35.2844C25.2404 35.2999 25.0962 35.3076 24.952 35.3076C24.5862 35.3076 24.2668 35.2535 23.9938 35.1453C23.7259 35.0371 23.5018 34.8903 23.3215 34.7049C23.1464 34.5143 23.015 34.2902 22.9274 34.0326C22.845 33.775 22.8038 33.4969 22.8038 33.1981ZM25.5083 32.7576C25.5032 32.6597 25.4851 32.5644 25.4542 32.4717C25.4285 32.379 25.3847 32.2966 25.3229 32.2245C25.2662 32.1523 25.1915 32.0931 25.0988 32.0467C25.0112 32.0004 24.9004 31.9772 24.7665 31.9772C24.6377 31.9772 24.527 32.0004 24.4342 32.0467C24.3415 32.0879 24.2642 32.1446 24.2024 32.2167C24.1406 32.2888 24.0917 32.3738 24.0556 32.4717C24.0247 32.5644 24.0015 32.6597 23.9861 32.7576H25.5083Z" fill="#440F83"/>
<path d="M27.5095 31.274C27.7053 31.2173 27.9577 31.1658 28.2668 31.1195C28.5759 31.068 28.9004 31.0422 29.2404 31.0422C29.5856 31.0422 29.8715 31.0886 30.0981 31.1813C30.33 31.2689 30.5128 31.3951 30.6468 31.5599C30.7807 31.7248 30.876 31.9205 30.9327 32.1472C30.9893 32.3738 31.0177 32.6263 31.0177 32.9044V35.1994H29.8663V33.0435C29.8663 32.6726 29.8174 32.4099 29.7195 32.2554C29.6216 32.1008 29.4388 32.0235 29.1709 32.0235C29.0885 32.0235 29.0009 32.0287 28.9082 32.039C28.8154 32.0442 28.733 32.0519 28.6609 32.0622V35.1994H27.5095V31.274Z" fill="#440F83"/>
</svg>
