<svg width="37" height="67" viewBox="0 0 37 67" fill="none" xmlns="http://www.w3.org/2000/svg">
<path d="M8.82129 66.6829V62.4995H10.5485C10.8625 62.4995 11.1336 62.5603 11.3616 62.6819C11.5898 62.8035 11.7657 62.9731 11.8894 63.1907C12.0129 63.4083 12.0747 63.6605 12.0747 63.9473C12.0747 64.2363 12.0117 64.4886 11.8854 64.7043C11.7591 64.92 11.5795 65.0872 11.3468 65.2058C11.114 65.3244 10.8375 65.3837 10.5174 65.3837H9.45204V64.5879H10.3311C10.4829 64.5879 10.6102 64.5614 10.7132 64.5082C10.816 64.4551 10.8942 64.3804 10.9475 64.2841C11.0007 64.1879 11.0273 64.0756 11.0273 63.9473C11.0273 63.818 11.0007 63.706 10.9475 63.6115C10.8942 63.517 10.816 63.444 10.7127 63.3923C10.6095 63.3407 10.4817 63.3149 10.3295 63.3149H9.83114V66.6829H8.82129Z" fill="#4B0888"/>
<path d="M14.6776 66.6829H13.5908L15.0028 62.4995H16.3492L17.7612 66.6829H16.6744L15.6924 63.5535H15.6596L14.6776 66.6829ZM14.5339 65.0356H16.8052V65.8053H14.5339V65.0356Z" fill="#4B0888"/>
<path d="M21.649 63.7555C21.6355 63.6052 21.575 63.4881 21.4677 63.4042C21.3604 63.3203 21.2079 63.2784 21.0102 63.2784C20.8794 63.2784 20.7706 63.2955 20.6835 63.3299C20.5965 63.3642 20.5312 63.4109 20.4874 63.47C20.4438 63.5291 20.4213 63.5965 20.4203 63.6722C20.4181 63.7349 20.4309 63.7902 20.4585 63.8382C20.4861 63.8864 20.5269 63.9284 20.5808 63.9645C20.6347 64.0006 20.6999 64.0323 20.7761 64.0597C20.8523 64.0871 20.938 64.111 21.033 64.1314L21.3926 64.2131C21.5996 64.2581 21.7823 64.3177 21.941 64.392C22.0996 64.4664 22.2332 64.5555 22.3418 64.6594C22.4503 64.7633 22.5324 64.8827 22.5883 65.0175C22.6442 65.1523 22.6726 65.3031 22.6738 65.4697C22.6726 65.735 22.6058 65.9622 22.4734 66.1512C22.3408 66.3402 22.151 66.4852 21.9038 66.5863C21.6567 66.6873 21.3594 66.7378 21.0119 66.7378C20.661 66.7378 20.3557 66.6851 20.0957 66.5797C19.8357 66.4743 19.6336 66.3147 19.4895 66.1009C19.3453 65.8871 19.2709 65.6174 19.2666 65.2916H20.234C20.2421 65.4256 20.2784 65.5378 20.3429 65.6281C20.4072 65.7184 20.4955 65.7864 20.6076 65.8323C20.7197 65.8782 20.85 65.9011 20.9988 65.9011C21.1344 65.9011 21.2503 65.8828 21.3463 65.8462C21.4425 65.8096 21.5165 65.7586 21.5682 65.6934C21.62 65.6282 21.6464 65.5531 21.6476 65.4681C21.6464 65.3891 21.6219 65.3216 21.5743 65.2655C21.5267 65.2094 21.4536 65.1603 21.3554 65.1184C21.257 65.0765 21.1311 65.0378 20.9775 65.0024L20.5412 64.9011C20.1796 64.818 19.8944 64.6836 19.6857 64.4979C19.4771 64.3121 19.3734 64.0603 19.3744 63.7425C19.3734 63.4832 19.443 63.2562 19.5834 63.0616C19.7237 62.8671 19.9177 62.7153 20.1652 62.6066C20.4125 62.4978 20.6954 62.4434 21.0135 62.4434C21.3376 62.4434 21.6191 62.4982 21.8582 62.6078C22.0974 62.7174 22.2829 62.8708 22.4149 63.068C22.5468 63.2652 22.6141 63.4943 22.6166 63.7555H21.649Z" fill="#4B0888"/>
<path d="M27.0447 63.7555C27.0312 63.6052 26.9707 63.4881 26.8634 63.4042C26.7561 63.3203 26.6035 63.2784 26.4057 63.2784C26.2749 63.2784 26.1661 63.2955 26.0792 63.3299C25.9921 63.3642 25.9267 63.4109 25.8831 63.47C25.8393 63.5291 25.817 63.5965 25.8158 63.6722C25.8137 63.7349 25.8264 63.7902 25.854 63.8382C25.8816 63.8864 25.9224 63.9284 25.9763 63.9645C26.0302 64.0006 26.0954 64.0323 26.1716 64.0597C26.248 64.0871 26.3336 64.111 26.4287 64.1314L26.7881 64.2131C26.9951 64.2581 27.178 64.3177 27.3365 64.392C27.4953 64.4664 27.6288 64.5555 27.7373 64.6594C27.8459 64.7633 27.9281 64.8827 27.984 65.0175C28.0397 65.1523 28.0681 65.3031 28.0693 65.4697C28.0681 65.735 28.0013 65.9622 27.8689 66.1512C27.7363 66.3402 27.5465 66.4852 27.2993 66.5863C27.0522 66.6873 26.7549 66.7378 26.4074 66.7378C26.0565 66.7378 25.7512 66.6851 25.4913 66.5797C25.2314 66.4743 25.0291 66.3147 24.885 66.1009C24.7408 65.8871 24.6666 65.6174 24.6621 65.2916H25.6295C25.6377 65.4256 25.6739 65.5378 25.7384 65.6281C25.8029 65.7184 25.891 65.7864 26.0031 65.8323C26.1152 65.8782 26.2457 65.9011 26.3943 65.9011C26.5299 65.9011 26.6458 65.8828 26.742 65.8462C26.8381 65.8096 26.9121 65.7586 26.9639 65.6934C27.0156 65.6282 27.0419 65.5531 27.0431 65.4681C27.0419 65.3891 27.0176 65.3216 26.97 65.2655C26.9222 65.2094 26.8493 65.1603 26.7509 65.1184C26.6527 65.0765 26.5267 65.0378 26.373 65.0024L25.9368 64.9011C25.5751 64.818 25.2899 64.6836 25.0812 64.4979C24.8727 64.3121 24.7689 64.0603 24.7701 63.7425C24.7689 63.4832 24.8385 63.2562 24.9789 63.0616C25.1194 62.8671 25.3134 62.7153 25.5607 62.6066C25.8082 62.4978 26.0909 62.4434 26.409 62.4434C26.7331 62.4434 27.0148 62.4982 27.2539 62.6078C27.4929 62.7174 27.6784 62.8708 27.8105 63.068C27.9425 63.2652 28.0096 63.4943 28.0121 63.7555H27.0447Z" fill="#4B0888"/>
<path fill-rule="evenodd" clip-rule="evenodd" d="M26.7814 0H9.5087C7.66393 0 6.16016 1.52924 6.16016 3.40853V36.8043V41.6262C6.16016 42.7121 7.02295 43.5922 8.09119 43.5922C9.15944 43.5926 10.0264 42.7121 10.0264 41.6258V36.7595V5.16538C10.0264 4.48458 10.577 3.93279 11.259 3.93279C14.2788 3.93279 22.0153 3.93279 25.0352 3.93237C25.3598 3.93237 25.6762 4.06262 25.9063 4.29352C26.1364 4.52484 26.2678 4.83833 26.2678 5.16497C26.2678 7.98308 26.2678 14.9193 26.2678 18.3952C26.2678 18.94 26.05 19.4622 25.6638 19.8476C25.2817 20.233 24.7599 20.4495 24.2135 20.4495H17.1672C15.3183 20.4495 13.8145 21.9783 13.8145 23.8576V33.8358C13.8145 34.9218 14.6814 35.8018 15.7497 35.8018C16.8179 35.8022 17.6849 34.9218 17.6808 33.8358V25.6149C17.6808 24.9341 18.2354 24.3823 18.9134 24.3823C21.4032 24.3823 26.7814 24.3819 26.7814 24.3819C27.7058 24.3819 28.544 23.9998 29.1521 23.3827C29.7601 22.7655 30.134 21.9134 30.134 20.9738V3.40853C30.134 1.52883 28.6302 0 26.7814 0ZM15.7785 17.0689C16.2715 17.0689 16.7563 16.8684 17.1056 16.5196C17.4548 16.1708 17.652 15.6884 17.652 15.1958C17.652 14.7028 17.4548 14.2192 17.1056 13.8699C16.7563 13.5215 16.2715 13.3227 15.7785 13.3227C15.2854 13.3214 14.8047 13.5215 14.4555 13.8699C14.1062 14.2192 13.9049 14.7023 13.909 15.1958C13.909 15.6884 14.1062 16.1708 14.4555 16.5196C14.8047 16.8684 15.2854 17.0689 15.7785 17.0689ZM22.7673 11.1722C23.1165 10.8234 23.3137 10.3414 23.3137 9.84799C23.3137 9.35496 23.1165 8.87219 22.7673 8.52337C22.418 8.17578 21.9332 7.97528 21.4401 7.97528C20.9471 7.97528 20.4664 8.17455 20.1172 8.52337C19.7679 8.87219 19.5666 9.35454 19.5666 9.84881C19.5666 10.3414 19.7679 10.8234 20.1172 11.1722C20.4664 11.521 20.9471 11.7215 21.4401 11.7215C21.9332 11.7215 22.418 11.521 22.7673 11.1722ZM15.762 11.7215C16.2551 11.7215 16.7358 11.521 17.085 11.1722C17.4342 10.8238 17.6356 10.3414 17.6356 9.84881C17.6356 9.35537 17.4342 8.87219 17.085 8.52337C16.7358 8.17455 16.2551 7.97528 15.762 7.97528C15.269 7.97528 14.7842 8.17454 14.4349 8.52378C14.0898 8.8726 13.8885 9.35537 13.8885 9.84799C13.8885 10.3414 14.0898 10.8238 14.4349 11.1722C14.7842 11.521 15.269 11.7215 15.762 11.7215Z" fill="#4B0888"/>
<path d="M4.32691 54.8367C4.32691 54.2461 4.19423 53.7753 3.92888 53.4244C3.66353 53.0649 3.26979 52.8851 2.74765 52.8851C2.57646 52.8851 2.4181 52.8937 2.27259 52.9108C2.12708 52.9194 2.00724 52.9322 1.91308 52.9493V56.4032C2.03292 56.4802 2.18699 56.5444 2.37531 56.5958C2.57218 56.6471 2.76905 56.6728 2.96592 56.6728C3.87325 56.6728 4.32691 56.0608 4.32691 54.8367ZM6.27851 54.7854C6.27851 55.3075 6.21431 55.7826 6.08592 56.2106C5.95752 56.6386 5.76921 57.0066 5.52098 57.3148C5.27275 57.6229 4.9646 57.8626 4.59654 58.0338C4.22847 58.205 3.80477 58.2906 3.32543 58.2906C3.06008 58.2906 2.81185 58.2649 2.58074 58.2135C2.34963 58.1622 2.12708 58.0894 1.91308 57.9953V60.5375H0V51.6397C0.171193 51.5884 0.368065 51.5413 0.590617 51.4985C0.813168 51.4471 1.04428 51.4043 1.28395 51.3701C1.53218 51.3358 1.78041 51.3102 2.02864 51.293C2.28543 51.2674 2.52938 51.2545 2.76049 51.2545C3.31687 51.2545 3.81333 51.3401 4.24987 51.5113C4.68641 51.674 5.05448 51.9093 5.35407 52.2175C5.65366 52.5171 5.88049 52.8851 6.03456 53.3217C6.19719 53.7582 6.27851 54.2461 6.27851 54.7854Z" fill="#4B0888"/>
<path d="M14.0659 54.7725C14.0659 55.3032 13.9888 55.7911 13.8348 56.2363C13.6807 56.6728 13.4581 57.0494 13.1671 57.3661C12.8761 57.6743 12.5251 57.9139 12.1143 58.0851C11.712 58.2563 11.2583 58.3419 10.7533 58.3419C10.2568 58.3419 9.80315 58.2563 9.39229 58.0851C8.98998 57.9139 8.64332 57.6743 8.35229 57.3661C8.06126 57.0494 7.83443 56.6728 7.6718 56.2363C7.50916 55.7911 7.42785 55.3032 7.42785 54.7725C7.42785 54.2419 7.50916 53.7582 7.6718 53.3217C7.84299 52.8851 8.0741 52.5128 8.36513 52.2047C8.66472 51.8965 9.01566 51.6568 9.41797 51.4856C9.82883 51.3144 10.2739 51.2288 10.7533 51.2288C11.2412 51.2288 11.6863 51.3144 12.0886 51.4856C12.4994 51.6568 12.8504 51.8965 13.1414 52.2047C13.4324 52.5128 13.6593 52.8851 13.8219 53.3217C13.9845 53.7582 14.0659 54.2419 14.0659 54.7725ZM12.1143 54.7725C12.1143 54.1819 11.9944 53.7197 11.7548 53.3859C11.5236 53.0435 11.1898 52.8723 10.7533 52.8723C10.3167 52.8723 9.97862 53.0435 9.73895 53.3859C9.49928 53.7197 9.37945 54.1819 9.37945 54.7725C9.37945 55.3632 9.49928 55.8339 9.73895 56.1849C9.97862 56.5273 10.3167 56.6985 10.7533 56.6985C11.1898 56.6985 11.5236 56.5273 11.7548 56.1849C11.9944 55.8339 12.1143 55.3632 12.1143 54.7725Z" fill="#4B0888"/>
<path d="M18.2441 58.2906C17.6877 58.282 17.2341 58.2221 16.8831 58.1108C16.5407 57.9995 16.2668 57.8455 16.0614 57.6486C15.8645 57.4432 15.7276 57.1992 15.6505 56.9167C15.5821 56.6257 15.5478 56.3004 15.5478 55.9409V48.5069L17.4609 48.1987V55.5558C17.4609 55.727 17.4737 55.881 17.4994 56.018C17.5251 56.1549 17.5722 56.2705 17.6407 56.3646C17.7177 56.4588 17.8247 56.5358 17.9616 56.5958C18.0986 56.6557 18.2826 56.6942 18.5137 56.7113L18.2441 58.2906Z" fill="#4B0888"/>
<path d="M22.3066 58.2906C21.7502 58.282 21.2966 58.2221 20.9456 58.1108C20.6032 57.9995 20.3293 57.8455 20.1239 57.6486C19.927 57.4432 19.7901 57.1992 19.713 56.9167C19.6446 56.6257 19.6103 56.3004 19.6103 55.9409V48.5069L21.5234 48.1987V55.5558C21.5234 55.727 21.5362 55.881 21.5619 56.018C21.5876 56.1549 21.6347 56.2705 21.7032 56.3646C21.7802 56.4588 21.8872 56.5358 22.0241 56.5958C22.1611 56.6557 22.3451 56.6942 22.5762 56.7113L22.3066 58.2906Z" fill="#4B0888"/>
<path d="M23.3518 54.8367C23.3518 54.2376 23.4417 53.7154 23.6215 53.2703C23.8098 52.8167 24.0537 52.44 24.3533 52.1405C24.6529 51.8409 24.9953 51.614 25.3805 51.46C25.7742 51.3059 26.1765 51.2288 26.5874 51.2288C27.5461 51.2288 28.3036 51.5242 28.86 52.1148C29.4163 52.6968 29.6945 53.5571 29.6945 54.6955C29.6945 54.8068 29.6903 54.9309 29.6817 55.0679C29.6731 55.1963 29.6646 55.3118 29.656 55.4145H25.3163C25.3591 55.8083 25.5431 56.1207 25.8684 56.3518C26.1936 56.5829 26.6302 56.6985 27.178 56.6985C27.5289 56.6985 27.8713 56.6685 28.2052 56.6086C28.5475 56.5401 28.8257 56.4588 29.0397 56.3646L29.2965 57.9182C29.1938 57.9696 29.0568 58.0209 28.8856 58.0723C28.7145 58.1237 28.5219 58.1665 28.3079 58.2007C28.1024 58.2435 27.8799 58.2777 27.6402 58.3034C27.4005 58.3291 27.1609 58.3419 26.9212 58.3419C26.3135 58.3419 25.7828 58.2521 25.3291 58.0723C24.884 57.8925 24.5117 57.6486 24.2121 57.3404C23.921 57.0237 23.7028 56.6514 23.5573 56.2234C23.4203 55.7954 23.3518 55.3332 23.3518 54.8367ZM27.8456 54.1049C27.8371 53.9423 27.8071 53.7839 27.7558 53.6298C27.713 53.4758 27.6402 53.3388 27.5375 53.219C27.4433 53.0991 27.3192 53.0007 27.1652 52.9237C27.0196 52.8466 26.8356 52.8081 26.6131 52.8081C26.3991 52.8081 26.215 52.8466 26.061 52.9237C25.9069 52.9921 25.7785 53.0863 25.6758 53.2061C25.5731 53.326 25.4917 53.4672 25.4318 53.6298C25.3805 53.7839 25.3419 53.9423 25.3163 54.1049H27.8456Z" fill="#4B0888"/>
<path d="M31.1709 51.6397C31.4961 51.5456 31.9156 51.46 32.4291 51.3829C32.9427 51.2973 33.482 51.2545 34.0469 51.2545C34.6204 51.2545 35.0955 51.3316 35.4721 51.4856C35.8573 51.6312 36.1612 51.8409 36.3837 52.1148C36.6063 52.3887 36.7646 52.714 36.8588 53.0906C36.9529 53.4672 37 53.8866 37 54.3488V58.1622H35.0869V54.58C35.0869 53.9637 35.0056 53.5271 34.843 53.2703C34.6803 53.0135 34.3765 52.8851 33.9314 52.8851C33.7944 52.8851 33.6489 52.8937 33.4948 52.9108C33.3407 52.9194 33.2038 52.9322 33.084 52.9493V58.1622H31.1709V51.6397Z" fill="#4B0888"/>
</svg>
